PathFileType	4	(X/Y/Z)	46_2_2_p0_0-206_filt_butterworth.trc
DataRate	CameraRate	NumFrames	NumMarkers	Units	OrigDataRate	OrigDataStartFrame	OrigNumFrames
59.0	59.0	5	27	m	59.0	51	206
Frame#	Time	RHip			RKnee			RAnkle			RBigToe			RSmallToe			RHeel			LHip			LKnee			LAnkle			LBigToe			LSmallToe			LHeel			Neck			Head			Nose			RShoulder			RElbow			RWrist			RThumb			RIndex			RPinky			LShoulder			LElbow			LWrist			LThumb			LIndex			LPinky			
		X1	Y1	Z1	X2	Y2	Z2	X3	Y3	Z3	X4	Y4	Z4	X5	Y5	Z5	X6	Y6	Z6	X7	Y7	Z7	X8	Y8	Z8	X9	Y9	Z9	X10	Y10	Z10	X11	Y11	Z11	X12	Y12	Z12	X13	Y13	Z13	X14	Y14	Z14	X15	Y15	Z15	X16	Y16	Z16	X17	Y17	Z17	X18	Y18	Z18	X19	Y19	Z19	X20	Y20	Z20	X21	Y21	Z21	X22	Y22	Z22	X23	Y23	Z23	X24	Y24	Z24	X25	Y25	Z25	X26	Y26	Z26	X27	Y27	Z27	
51	0.864406779661017	0.3885677968974957	0.9057250959500727	0.467961801810215	0.34707626324462415	0.4987814229225286	0.46077291620088423	0.33709623162554353	0.06939117774260503	0.5026246373036695	0.3548421974627553	0.04090278319859819	0.3420306208081038	0.4210627317118627	0.0436101077208157	0.36471751984365336	0.3095133135249529	-0.007255556197988289	0.5815247116742215	0.2044743031885034	0.9268305489353352	0.4268216975181942	0.20671628512633897	0.5026549184176906	0.45677908400987777	0.17171960905212494	0.06571836287041438	0.5083954912802899	0.1977350957786951	0.06927162728915312	0.30547707894839393	0.13917744296809498	0.058528821846869625	0.3441550114081277	0.1842822882605903	-0.02300129497570468	0.5622325099697544	0.31354029799115496	1.4519101020170229	0.42155418272911654	0.33384650437017027	1.6921001112563825	0.2889987905567615	0.33420565977840466	1.553427531925594	0.27007322979308357	0.46084074634048616	1.3860924523976719	0.42379744592967916	0.6477006098030945	1.2015070479335523	0.4845401402284645	0.5162527935303416	1.0808011023545745	0.3830417327063378	0.4366314511782867	1.0104401827850205	0.3857848300016685	0.4511815946806573	1.0038125189233154	0.35515577136348275	0.49893302062570755	0.9951247713773326	0.33411029441965145	0.14425291559991046	1.388333801904746	0.41594312967906016	-0.050578412543365016	1.226641140780689	0.4397928458851426	0.08718571895449456	1.1222345397221525	0.31994819551631515	0.1558900454647189	1.0346903583229676	0.3442336782643369	0.14449464500794823	1.0222055709828053	0.3369285339655454	0.08713320951577574	1.03490787764312	0.30491984423258345	
52	0.8813559322033898	0.3880890066716201	0.9088940122789453	0.4678225042726543	0.3473964822325912	0.49938476003096705	0.46179492930672594	0.3372200180235074	0.06982208693074522	0.502340526191922	0.35488312212381196	0.040906251097539315	0.3419887620041392	0.4201737853359511	0.043750525906578366	0.36435529645244247	0.3093805124508279	-0.00687149169389821	0.5809585775836797	0.20664030268868344	0.9290928909712045	0.4251919301248882	0.2080542740068188	0.5041253046464447	0.4546973289751673	0.17172358060104873	0.06575937734638232	0.5083619814918037	0.19783236046710784	0.06757428907578863	0.3073540563114973	0.13904169643999964	0.0568529432263251	0.34427745746761457	0.18401703865994568	-0.024005259135862992	0.5635363966034854	0.3135374455871082	1.4517318573035707	0.4215631427418387	0.3336240100794602	1.6917571753555318	0.28754069894528467	0.33352018982633014	1.5523067785455784	0.269974017993484	0.4607315991190774	1.386665155951338	0.42383541563482174	0.6554406198146514	1.2108287712263395	0.4887209860701336	0.5239617828940936	1.09244643654127	0.3940941121569086	0.44405811764421393	1.0237039735054108	0.39535501446331783	0.46022834085508324	1.0173004605275962	0.36534686592071886	0.5045198303992429	1.0076522506612788	0.3443496916575492	0.1442654961037084	1.3888673555473312	0.41617929596802505	-0.05582177490321301	1.2412823481722723	0.4325915366756319	0.0824299958253738	1.1367619653209386	0.3233866153802659	0.14941861921346347	1.0509441048770165	0.35688134906717967	0.13916565249880142	1.0370003804341585	0.35142375399987774	0.0848597866577401	1.0476419198820157	0.3261339305532565	
53	0.8983050847457628	0.38759013762151145	0.9122407323227504	0.4677387396637203	0.347751224345607	0.4997593726649042	0.46286906449574927	0.33738868218916906	0.07017661764393587	0.5019146793666817	0.3545988478377644	0.04098794909190563	0.3417746224308675	0.4195106961106193	0.043894256383701674	0.3640053000573961	0.3092905955552111	-0.0066441316121843425	0.5806571045030692	0.2087141229435246	0.9312736566870581	0.4241636630442432	0.20933985713124287	0.5053459899313636	0.45265495394164873	0.17172609787304965	0.06580093888750557	0.5083395756829111	0.19782848349987525	0.06625609162351384	0.30914128890360254	0.13913342138757478	0.05486930283225966	0.3446507402287103	0.1836468623080727	-0.02507658477450521	0.5651177732077117	0.31358322613684386	1.4517505796224675	0.4213939096248339	0.3331994731784744	1.6917767564617967	0.2859400665699559	0.33279606506160087	1.5508286202812787	0.2698358268414377	0.4603342116177248	1.3868704335970188	0.4237651884573217	0.6622500498005832	1.2181540645666693	0.49403751755313896	0.5304913742369249	1.1018166634862978	0.40442046758607714	0.4494147804069883	1.0384451854199648	0.40355295053753226	0.46644382535170403	1.0300407100534679	0.3764083003235952	0.5067175724330363	1.0190881019962512	0.35212282326849254	0.1440374590113709	1.3894154048330618	0.4162037534365016	-0.0605528271963912	1.2544395081003221	0.4225921806759863	0.07765412647206739	1.1491185592567108	0.3281924376820813	0.14404346183906475	1.0673891967321054	0.37005007873975804	0.1362873026825453	1.0519118651974377	0.3652141999843244	0.08694868845669218	1.0585862829009267	0.34596184946410435	
54	0.9152542372881356	0.3869583102465509	0.9153472348957868	0.4679619067612008	0.3480979944449474	0.4998345234576206	0.46382508601694705	0.3375317348835523	0.0703752865472365	0.5015124396524469	0.35402348128268585	0.04113730309659314	0.3414176436978978	0.41913190367484765	0.043982040651751694	0.3637725622872133	0.3092537088854813	-0.006628473154952408	0.5806405043303855	0.21058327926792547	0.9333555065171314	0.4236590763231348	0.21050322484760817	0.506294354659789	0.4507183929914057	0.17172583487510049	0.06584241742411083	0.5083284891611766	0.19781212021997616	0.06576902665180648	0.31009916219192246	0.13952363908057272	0.053163761533598544	0.34509847621669076	0.18313989772651165	-0.02622306175634561	0.5669269007723362	0.3136970891737164	1.4519814924545786	0.4210314162987994	0.3327111207131628	1.6919598887140341	0.2840863030170192	0.3321367298334635	1.5489264786610948	0.26965342586121754	0.4596666128217682	1.386836213356836	0.42360400889333527	0.6683187168342815	1.2249567064529603	0.5001137298084468	0.5356428034380001	1.108808066255078	0.41330714410702674	0.45301870382707676	1.054340806487259	0.4117271460387733	0.46921659599628374	1.0420306329083193	0.38856995880439227	0.5060683407194139	1.0287634146987072	0.358363773387401	0.14369853138882183	1.3900101610978515	0.4161106972889258	-0.06508197479176342	1.2657225135944203	0.4124409476621931	0.07297160417116501	1.1590054569272983	0.3335714223175014	0.14014043341368596	1.0830960139840613	0.382347341798938	0.1357767193283876	1.066447115811163	0.37674090712621966	0.09164679133974515	1.0672267894963727	0.3636016676729208	
55	0.9322033898305084	0.3861082268671355	0.917822873086067	0.46847761082113293	0.3483861450698525	0.49958696604225983	0.46447117174441205	0.3375600390049834	0.07029897878821029	0.5013465437550205	0.3532983183178101	0.04131830591140388	0.34099772601233685	0.41904559805781394	0.04399248485136479	0.36368934642223627	0.30927252521110477	-0.006826980187420471	0.5809101001017319	0.21227381185361688	0.9352097475560972	0.4233761674054909	0.2114866856076835	0.5070406865542756	0.44889551485011964	0.17172246962383492	0.06588363074403836	0.508322272840122	0.19783649835576225	0.0658782146710192	0.31011269339636593	0.14010117895417423	0.05219096042852807	0.3456539008407492	0.18257642252179385	-0.0273259266218226	0.568751480585168	0.3137889761366224	1.452316414645065	0.4207119571528659	0.33227566659632257	1.6921268967319196	0.2821492430549951	0.3316376844094516	1.5468081276122814	0.26945007960803646	0.4588619830807955	1.3867242516795744	0.42338940277257836	0.6737195850804978	1.2323542897909143	0.5060270639914346	0.5392526636260425	1.1136407785931146	0.4203276941603239	0.45512021227549726	1.0707546937378645	0.42066155071719014	0.46837280866568576	1.0532555574213718	0.4017028983522863	0.5032677712249609	1.0357779608319675	0.36593806419595487	0.1434353977707295	1.3906809110733032	0.4159913314183461	-0.0690400926070868	1.2751742935290054	0.4039811868243285	0.06904389258168865	1.1664578385345301	0.33889178931976144	0.13801618896064036	1.0976145795664158	0.39296177486881867	0.13704819581316113	1.0801672456796414	0.3851251451945238	0.09732424940673144	1.0730773272382923	0.3787443082706132	
